<?xml version="1.0" encoding="UTF-8" standalone="no"?>
<svg
   xmlns:dc="http://purl.org/dc/elements/1.1/"
   xmlns:cc="http://creativecommons.org/ns#"
   xmlns:rdf="http://www.w3.org/1999/02/22-rdf-syntax-ns#"
   xmlns:svg="http://www.w3.org/2000/svg"
   xmlns="http://www.w3.org/2000/svg"
   xmlns:sodipodi="http://sodipodi.sourceforge.net/DTD/sodipodi-0.dtd"
   xmlns:inkscape="http://www.inkscape.org/namespaces/inkscape"
   width="16"
   height="16"
   version="1.1"
   id="svg8"
   sodipodi:docname="mail-mark-junk-symbolic.svg"
   inkscape:version="0.92.4 5da689c313, 2019-01-14">
  <metadata
     id="metadata14">
    <rdf:RDF>
      <cc:Work
         rdf:about="">
        <dc:format>image/svg+xml</dc:format>
        <dc:type
           rdf:resource="http://purl.org/dc/dcmitype/StillImage" />
      </cc:Work>
    </rdf:RDF>
  </metadata>
  <defs
     id="defs12" />
  <sodipodi:namedview
     pagecolor="#ffffff"
     bordercolor="#666666"
     borderopacity="1"
     objecttolerance="10"
     gridtolerance="10"
     guidetolerance="10"
     inkscape:pageopacity="0"
     inkscape:pageshadow="2"
     inkscape:window-width="3440"
     inkscape:window-height="1366"
     id="namedview10"
     showgrid="false"
     inkscape:zoom="32"
     inkscape:cx="-24.571845"
     inkscape:cy="0.32547664"
     inkscape:window-x="0"
     inkscape:window-y="0"
     inkscape:window-maximized="1"
     inkscape:current-layer="svg8" />
  <path
     inkscape:connector-curvature="0"
     id="path2"
     overflow="visible"
     style="color:#000000;font-weight:400;line-height:normal;font-family:sans-serif;font-variant-ligatures:normal;font-variant-position:normal;font-variant-caps:normal;font-variant-numeric:normal;font-variant-alternates:normal;font-feature-settings:normal;text-indent:0;text-align:start;text-decoration:none;text-decoration-line:none;text-decoration-style:solid;text-decoration-color:#000000;text-transform:none;text-orientation:mixed;white-space:normal;shape-padding:0;overflow:visible;isolation:auto;mix-blend-mode:normal;fill:#2e3436;fill-opacity:0.13181818"
     d="M 11.275,0.074 A 1,1 0 0 0 10.9,0 H 5.102 a 1,1 0 0 0 -0.71,0.295 l -4.1,4.1 A 1,1 0 0 0 -0.001,5.101 L 0,10.898 a 1,1 0 0 0 0.294,0.71 l 4.1,4.1 A 1,1 0 0 0 5.1,16.001 L 10.898,16 a 1,1 0 0 0 0.71,-0.294 l 4.1,-4.1 A 1,1 0 0 0 16.001,10.9 L 16,5.102 a 1,1 0 0 0 -0.294,-0.71 l -4.1,-4.1 A 1,1 0 0 0 11.275,0.074 Z M 10.485,2 14,5.515 v 4.97 L 10.485,14 H 5.515 L 2,10.485 V 5.515 L 5.515,2 Z" />
  <path
     inkscape:connector-curvature="0"
     id="path4"
     overflow="visible"
     style="color:#000000;font-weight:400;line-height:normal;font-family:Sans;-inkscape-font-specification:Sans;text-indent:0;text-align:start;text-decoration:none;text-decoration-line:none;text-transform:none;overflow:visible;fill:#2e3436;marker:none;fill-opacity:0.13181818"
     d="m 6.994,4 h 2 V 7 L 8.744,9 H 7.275 L 6.995,7 Z m 1,5.75 a 1.25,1.25 0 1 1 0,2.5 1.25,1.25 0 0 1 0,-2.5 z" />
</svg>
